<svg xmlns="http://www.w3.org/2000/svg" xmlns:xlink="http://www.w3.org/1999/xlink" width="2170" height="455.91"><rect width="2170" height="455.91" rx="0" ry="0" class="a"/><svg height="455.91" viewBox="0 0 217 45.591" width="2170" xmlns="http://www.w3.org/2000/svg" xmlns:xlink="http://www.w3.org/1999/xlink"><style>@keyframes l{0%{transform:translateX(0)}4.39%{transform:translateX(-217px)}4.41%{transform:translateX(-434px)}4.84%{transform:translateX(-868px)}16.07%{transform:translateX(-1302px)}16.39%{transform:translateX(-1519px)}16.69%{transform:translateX(-1736px)}17.02%{transform:translateX(-1953px)}17.52%{transform:translateX(-2170px)}19.8%{transform:translateX(-2387px)}19.81%{transform:translateX(-2604px)}20.38%{transform:translateX(-2821px)}20.72%{transform:translateX(-3038px)}21.17%{transform:translateX(-3472px)}21.18%{transform:translateX(-3689px)}21.23%{transform:translateX(-3906px)}21.27%{transform:translateX(-4123px)}21.34%{transform:translateX(-4340px)}23.02%{transform:translateX(-4557px)}23.2%{transform:translateX(-4774px)}23.4%{transform:translateX(-4991px)}24.1%{transform:translateX(-5208px)}24.29%{transform:translateX(-5425px)}24.78%{transform:translateX(-5642px)}25.16%{transform:translateX(-5859px)}25.34%{transform:translateX(-6076px)}25.35%{transform:translateX(-6293px)}25.36%{transform:translateX(-6510px)}25.38%{transform:translateX(-6727px)}25.44%{transform:translateX(-6944px)}25.48%{transform:translateX(-7161px)}26.01%{transform:translateX(-7378px)}26.03%{transform:translateX(-8463px)}26.05%{transform:translateX(-8680px)}26.42%{transform:translateX(-9331px)}39.81%{transform:translateX(-9548px)}39.82%{transform:translateX(-9765px)}40.1%{transform:translateX(-9982px)}40.46%{transform:translateX(-10199px)}40.68%{transform:translateX(-10416px)}41.06%{transform:translateX(-10633px)}90.94%{transform:translateX(-10850px)}90.95%{transform:translateX(-11067px)}92.13%{transform:translateX(-11284px)}92.14%{transform:translateX(-11501px)}92.66%{transform:translateX(-11718px)}92.67%{transform:translateX(-11935px)}95.41%{transform:translateX(-12152px)}95.42%{transform:translateX(-12369px)}95.94%{transform:translateX(-12586px)}95.95%{transform:translateX(-12803px)}96.49%{transform:translateX(-13237px)}96.95%{transform:translateX(-13454px)}99.9%{transform:translateX(-13671px)}}.a{fill:#282d35}.c,.d,.e{fill:#e88388;white-space:pre}.d,.e{fill:#a8cc8c}.e{fill:#66c2cd}.f{font-weight:700}.f,.g,.h,.i{fill:#b9c0cb;white-space:pre}.h,.i{fill:#6f7783}.i{fill:#d290e4}</style><g font-family="Monaco,Consolas,Menlo,'Bitstream Vera Sans Mono','Powerline Symbols',monospace" font-size="1.67"><defs><symbol id="1"><text y="1.67" class="c">*</text><text x="1.002" y="1.67" class="d">[dev-verify-policy]</text><text x="20.04" y="1.67" class="e">[~/dev/sandbox/kerits/kv4-fourth/examples/verify-standalone]</text><text x="80.16" y="1.67" class="f">$</text></symbol><symbol id="2"><text y="1.67" class="c">*</text><text x="1.002" y="1.67" class="d">[dev-verify-policy]</text><text x="20.04" y="1.67" class="e">[~/dev/sandbox/kerits/kv4-fourth/examples/verify-standalone]</text><text x="80.16" y="1.67" class="f">$</text><text x="82.164" y="1.67" class="g">m</text></symbol><symbol id="3"><text y="1.67" class="c">*</text><text x="1.002" y="1.67" class="d">[dev-verify-policy]</text><text x="20.04" y="1.67" class="e">[~/dev/sandbox/kerits/kv4-fourth/examples/verify-standalone]</text><text x="80.16" y="1.67" class="f">$</text><text x="82.164" y="1.67" class="g">make</text><text x="87.174" y="1.67" class="h">record</text></symbol><symbol id="4"><text y="1.67" class="c">*</text><text x="1.002" y="1.67" class="d">[dev-verify-policy]</text><text x="20.04" y="1.67" class="e">[~/dev/sandbox/kerits/kv4-fourth/examples/verify-standalone]</text><text x="80.16" y="1.67" class="f">$</text><text x="82.164" y="1.67" class="g">make</text><text x="87.174" y="1.67" class="g">dev</text></symbol><symbol id="5"><text y="1.67" class="g">bun</text><text x="4.008" y="1.67" class="g">install</text></symbol><symbol id="6"><text y="1.67" class="f">bun</text><text x="4.008" y="1.67" class="f">install</text><text x="12.024" y="1.67" class="g">v1.3.6</text><text x="19.038" y="1.67" class="g">(d530ed99)</text></symbol><symbol id="7"><text y="1.67" class="i">$</text><text x="2.004" y="1.67" class="f">./scripts/fix-libsodium.sh</text></symbol><symbol id="8"><text y="1.67" class="g">Checked</text><text x="8.016" y="1.67" class="d">927</text><text x="12.024" y="1.67" class="d">installs</text><text x="21.042" y="1.67" class="g">across</text><text x="28.056" y="1.67" class="g">1086</text><text x="33.066" y="1.67" class="g">packages</text><text x="42.084" y="1.67" class="g">(no</text><text x="46.092" y="1.67" class="g">changes)</text><text x="55.11" y="1.67" class="g">[</text><text x="56.112" y="1.67" class="f">1266.00ms</text><text x="65.13" y="1.67" class="g">]</text></symbol><symbol id="9"><text y="1.67" class="g">SEED=0acq81kSrtJTbeII</text><text x="22.044" y="1.67" class="g">bun</text><text x="26.052" y="1.67" class="g">run</text><text x="30.06" y="1.67" class="g">start</text></symbol><symbol id="10"><text y="1.67" class="i">$</text><text x="2.004" y="1.67" class="f">bun</text><text x="6.012" y="1.67" class="f">run</text><text x="10.02" y="1.67" class="f">index.ts</text></symbol><symbol id="11"><text y="1.67" class="c">Error:</text><text x="7.014" y="1.67" class="c">TARGET_AID</text><text x="18.036" y="1.67" class="c">environment</text><text x="30.06" y="1.67" class="c">variable</text><text x="39.078" y="1.67" class="c">is</text><text x="42.084" y="1.67" class="c">required.</text></symbol><symbol id="12"><text y="1.67" class="c">Usage:</text></symbol><symbol id="13"><text x="2.004" y="1.67" class="c">TARGET_AID=EAbcd...</text><text x="22.044" y="1.67" class="c">bun</text><text x="26.052" y="1.67" class="c">run</text><text x="30.06" y="1.67" class="c">start</text></symbol><symbol id="14"><text y="1.67" class="c">Environment</text><text x="12.024" y="1.67" class="c">variables:</text></symbol><symbol id="15"><text x="2.004" y="1.67" class="c">TARGET_AID</text><text x="18.036" y="1.67" class="c">(required)</text><text x="29.058" y="1.67" class="c">AID</text><text x="33.066" y="1.67" class="c">of</text><text x="36.072" y="1.67" class="c">the</text><text x="40.08" y="1.67" class="c">target</text><text x="47.094" y="1.67" class="c">controller</text></symbol><symbol id="16"><text x="2.004" y="1.67" class="c">SPACETIME_URL</text><text x="18.036" y="1.67" class="c">SpacetimeDB</text><text x="30.06" y="1.67" class="c">URL</text><text x="34.068" y="1.67" class="c">(default:</text><text x="44.088" y="1.67" class="c">wss://maincloud.spacetimedb.com)</text></symbol><symbol id="17"><text x="2.004" y="1.67" class="c">SEED</text><text x="18.036" y="1.67" class="c">Verifier</text><text x="27.054" y="1.67" class="c">seed</text><text x="32.064" y="1.67" class="c">phrase</text><text x="39.078" y="1.67" class="c">(default:</text><text x="49.098" y="1.67" class="c">example-verifier-seed)</text></symbol><symbol id="18"><text y="1.67" class="c">error</text><text x="5.01" y="1.67" class="g">:</text><text x="7.014" y="1.67" class="g">script</text><text x="14.028" y="1.67" class="f">&quot;start&quot;</text><text x="22.044" y="1.67" class="g">exited</text><text x="29.058" y="1.67" class="g">with</text><text x="34.068" y="1.67" class="g">code</text><text x="39.078" y="1.67" class="g">1</text></symbol><symbol id="19"><text y="1.67" class="g">make[1]:</text><text x="9.018" y="1.67" class="g">***</text><text x="13.026" y="1.67" class="g">[dev]</text><text x="19.038" y="1.67" class="g">Error</text><text x="25.05" y="1.67" class="g">1</text></symbol><symbol id="20"><text y="1.67" class="c">*</text><text x="1.002" y="1.67" class="d">[dev-verify-policy]</text><text x="20.04" y="1.67" class="e">[~/dev/sandbox/kerits/kv4-fourth/examples/verify-standalone]</text><text x="80.16" y="1.67" class="f">$</text><text x="82.164" y="1.67" class="g">m</text><text x="83.166" y="1.67" class="h">ake</text><text x="87.174" y="1.67" class="h">dev</text></symbol><symbol id="21"><text y="1.67" class="c">*</text><text x="1.002" y="1.67" class="d">[dev-verify-policy]</text><text x="20.04" y="1.67" class="e">[~/dev/sandbox/kerits/kv4-fourth/examples/verify-standalone]</text><text x="80.16" y="1.67" class="f">$</text><text x="82.164" y="1.67" class="g">ma</text><text x="84.168" y="1.67" class="h">ke</text><text x="87.174" y="1.67" class="h">dev</text></symbol><symbol id="22"><text y="1.67" class="c">*</text><text x="1.002" y="1.67" class="d">[dev-verify-policy]</text><text x="20.04" y="1.67" class="e">[~/dev/sandbox/kerits/kv4-fourth/examples/verify-standalone]</text><text x="80.16" y="1.67" class="f">$</text><text x="82.164" y="1.67" class="g">mak</text><text x="85.17" y="1.67" class="h">e</text><text x="87.174" y="1.67" class="h">dev</text></symbol><symbol id="23"><text y="1.67" class="c">*</text><text x="1.002" y="1.67" class="d">[dev-verify-policy]</text><text x="20.04" y="1.67" class="e">[~/dev/sandbox/kerits/kv4-fourth/examples/verify-standalone]</text><text x="80.16" y="1.67" class="f">$</text><text x="82.164" y="1.67" class="g">make</text><text x="87.174" y="1.67" class="h">dev</text></symbol><symbol id="24"><text y="1.67" class="c">*</text><text x="1.002" y="1.67" class="d">[dev-verify-policy]</text><text x="20.04" y="1.67" class="e">[~/dev/sandbox/kerits/kv4-fourth/examples/verify-standalone]</text><text x="80.16" y="1.67" class="f">$</text><text x="82.164" y="1.67" class="g">make</text></symbol><symbol id="a"><path fill="transparent" d="M0 0h217v21H0z"/></symbol><symbol id="b"><path fill="#6f7683" d="M0 0h1.102v2.171H0z"/></symbol></defs><path class="a" d="M0 0h217v45.591H0z"/><g style="animation-duration:30.666339s;animation-iteration-count:infinite;animation-name:l;animation-timing-function:steps(1,end)"><svg width="13888"><svg><use xlink:href="#a"/><use xlink:href="#b" x="-.004"/></svg><svg x="217"><use xlink:href="#a"/><use xlink:href="#b" x="-.004"/></svg><svg x="434"><use xlink:href="#a"/><use xlink:href="#b" x="-.004"/></svg><svg x="651"><use xlink:href="#a"/><use xlink:href="#b" x="81.996"/><use xlink:href="#1"/></svg><svg x="868"><use xlink:href="#a"/><use xlink:href="#b" x="81.996"/><use xlink:href="#1"/></svg><svg x="1085"><use xlink:href="#a"/><use xlink:href="#b" x="82.996"/><use xlink:href="#2"/></svg><svg x="1302"><use xlink:href="#a"/><use xlink:href="#b" x="82.996"/><text y="1.67" class="c">*</text><text x="1.002" y="1.67" class="d">[dev-verify-policy]</text><text x="20.04" y="1.67" class="e">[~/dev/sandbox/kerits/kv4-fourth/examples/verify-standalone]</text><text x="80.16" y="1.67" class="f">$</text><text x="82.164" y="1.67" class="g">m</text><text x="83.166" y="1.67" class="h">ake</text><text x="87.174" y="1.67" class="h">record</text></svg><svg x="1519"><use xlink:href="#a"/><use xlink:href="#b" x="83.996"/><text y="1.67" class="c">*</text><text x="1.002" y="1.67" class="d">[dev-verify-policy]</text><text x="20.04" y="1.67" class="e">[~/dev/sandbox/kerits/kv4-fourth/examples/verify-standalone]</text><text x="80.16" y="1.67" class="f">$</text><text x="82.164" y="1.67" class="g">ma</text><text x="84.168" y="1.67" class="h">ke</text><text x="87.174" y="1.67" class="h">record</text></svg><svg x="1736"><use xlink:href="#a"/><use xlink:href="#b" x="84.996"/><text y="1.67" class="c">*</text><text x="1.002" y="1.67" class="d">[dev-verify-policy]</text><text x="20.04" y="1.67" class="e">[~/dev/sandbox/kerits/kv4-fourth/examples/verify-standalone]</text><text x="80.16" y="1.67" class="f">$</text><text x="82.164" y="1.67" class="g">mak</text><text x="85.17" y="1.67" class="h">e</text><text x="87.174" y="1.67" class="h">record</text></svg><svg x="1953"><use xlink:href="#a"/><use xlink:href="#b" x="85.996"/><use xlink:href="#3"/></svg><svg x="2170"><use xlink:href="#a"/><use xlink:href="#b" x="86.996"/><use xlink:href="#3"/></svg><svg x="2387"><use xlink:href="#a"/><use xlink:href="#b" x="87.996"/><text y="1.67" class="c">*</text><text x="1.002" y="1.67" class="d">[dev-verify-policy]</text><text x="20.04" y="1.67" class="e">[~/dev/sandbox/kerits/kv4-fourth/examples/verify-standalone]</text><text x="80.16" y="1.67" class="f">$</text><text x="82.164" y="1.67" class="g">make</text><text x="87.174" y="1.67" class="g">d</text></svg><svg x="2604"><use xlink:href="#a"/><use xlink:href="#b" x="87.996"/><text y="1.67" class="c">*</text><text x="1.002" y="1.67" class="d">[dev-verify-policy]</text><text x="20.04" y="1.67" class="e">[~/dev/sandbox/kerits/kv4-fourth/examples/verify-standalone]</text><text x="80.16" y="1.67" class="f">$</text><text x="82.164" y="1.67" class="g">make</text><text x="87.174" y="1.67" class="g">d</text><text x="88.176" y="1.67" class="h">ev</text></svg><svg x="2821"><use xlink:href="#a"/><use xlink:href="#b" x="88.996"/><text y="1.67" class="c">*</text><text x="1.002" y="1.67" class="d">[dev-verify-policy]</text><text x="20.04" y="1.67" class="e">[~/dev/sandbox/kerits/kv4-fourth/examples/verify-standalone]</text><text x="80.16" y="1.67" class="f">$</text><text x="82.164" y="1.67" class="g">make</text><text x="87.174" y="1.67" class="g">de</text><text x="89.178" y="1.67" class="h">v</text></svg><svg x="3038"><use xlink:href="#a"/><use xlink:href="#b" x="89.996"/><use xlink:href="#4"/></svg><svg x="3255"><use xlink:href="#a"/><use xlink:href="#b" x="89.996"/><use xlink:href="#4"/></svg><svg x="3472"><use xlink:href="#a"/><use xlink:href="#b" x="-.004" y="2.146"/><use xlink:href="#4"/></svg><svg x="3689"><use xlink:href="#a"/><use xlink:href="#b" x="-.004" y="2.146"/><use xlink:href="#4"/></svg><svg x="3906"><use xlink:href="#a"/><use xlink:href="#b" x="-.004" y="4.317"/><use xlink:href="#4"/><use xlink:href="#5" y="2.171"/></svg><svg x="4123"><use xlink:href="#a"/><use xlink:href="#b" x="-.004" y="6.488"/><use xlink:href="#4"/><use xlink:href="#5" y="2.171"/><use xlink:href="#6" y="4.342"/></svg><svg x="4340"><use xlink:href="#a"/><use xlink:href="#b" x="21.996" y="6.488"/><use xlink:href="#4"/><use xlink:href="#5" y="2.171"/><use xlink:href="#6" y="4.342"/><text x="2.004" y="8.183" class="g">🔍</text><text x="5.01" y="8.183" class="g">Resolving</text><text x="15.03" y="8.183" class="g">[1/21]</text></svg><svg x="4557"><use xlink:href="#a"/><use xlink:href="#b" x="26.996" y="6.488"/><use xlink:href="#4"/><use xlink:href="#5" y="2.171"/><use xlink:href="#6" y="4.342"/><text x="2.004" y="8.183" class="g">🔍</text><text x="5.01" y="8.183" class="g">@noble/curves</text><text x="19.038" y="8.183" class="g">[12/21]</text></svg><svg x="4774"><use xlink:href="#a"/><use xlink:href="#b" x="28.996" y="6.488"/><use xlink:href="#4"/><use xlink:href="#5" y="2.171"/><use xlink:href="#6" y="4.342"/><text x="2.004" y="8.183" class="g">🔍</text><text x="5.01" y="8.183" class="g">@vitest/browser</text><text x="21.042" y="8.183" class="g">[17/23]</text></svg><svg x="4991"><use xlink:href="#a"/><use xlink:href="#b" x="25.996" y="6.488"/><use xlink:href="#4"/><use xlink:href="#5" y="2.171"/><use xlink:href="#6" y="4.342"/><text x="2.004" y="8.183" class="g">🔍</text><text x="5.01" y="8.183" class="g">@scure/bip39</text><text x="18.036" y="8.183" class="g">[19/23]</text></svg><svg x="5208"><use xlink:href="#a"/><use xlink:href="#b" x="20.996" y="6.488"/><use xlink:href="#4"/><use xlink:href="#5" y="2.171"/><use xlink:href="#6" y="4.342"/><text x="2.004" y="8.183" class="g">🚚</text><text x="5.01" y="8.183" class="g">cesr-ts</text><text x="13.026" y="8.183" class="g">[22/24]</text></svg><svg x="5425"><use xlink:href="#a"/><use xlink:href="#b" x="27.996" y="6.488"/><use xlink:href="#4"/><use xlink:href="#5" y="2.171"/><use xlink:href="#6" y="4.342"/><text x="2.004" y="8.183" class="g">🔍</text><text x="5.01" y="8.183" class="g">@elysiajs/eden</text><text x="20.04" y="8.183" class="g">[25/26]</text></svg><svg x="5642"><use xlink:href="#a"/><use xlink:href="#b" x="36.996" y="6.488"/><use xlink:href="#4"/><use xlink:href="#5" y="2.171"/><use xlink:href="#6" y="4.342"/><text x="2.004" y="8.183" class="g">🔍</text><text x="5.01" y="8.183" class="g">libsodium-wrappers-sumo</text><text x="29.058" y="8.183" class="g">[26/26]</text></svg><svg x="5859"><use xlink:href="#a"/><use xlink:href="#b" x="-.004" y="6.488"/><use xlink:href="#4"/><use xlink:href="#5" y="2.171"/><use xlink:href="#6" y="4.342"/></svg><svg x="6076"><use xlink:href="#a"/><use xlink:href="#b" x="23.996" y="6.488"/><use xlink:href="#4"/><use xlink:href="#5" y="2.171"/><use xlink:href="#6" y="4.342"/><text x="2.004" y="8.183" class="g">🔒</text><text x="5.01" y="8.183" class="g">Saving</text><text x="12.024" y="8.183" class="g">lockfile...</text></svg><svg x="6293"><use xlink:href="#a"/><use xlink:href="#b" x="-.004" y="8.659"/><use xlink:href="#4"/><use xlink:href="#5" y="2.171"/><use xlink:href="#6" y="4.342"/></svg><svg x="6510"><use xlink:href="#a"/><use xlink:href="#b" x="-.004" y="10.83"/><use xlink:href="#4"/><use xlink:href="#5" y="2.171"/><use xlink:href="#6" y="4.342"/><use xlink:href="#7" y="8.684"/></svg><svg x="6727"><use xlink:href="#a"/><use xlink:href="#b" x="-.004" y="15.172"/><use xlink:href="#4"/><use xlink:href="#5" y="2.171"/><use xlink:href="#6" y="4.342"/><use xlink:href="#7" y="8.684"/><use xlink:href="#8" y="13.026"/></svg><svg x="6944"><use xlink:href="#a"/><use xlink:href="#b" x="-.004" y="17.343"/><use xlink:href="#4"/><use xlink:href="#5" y="2.171"/><use xlink:href="#6" y="4.342"/><use xlink:href="#7" y="8.684"/><use xlink:href="#8" y="13.026"/><use xlink:href="#9" y="15.197"/></svg><svg x="7161"><use xlink:href="#a"/><use xlink:href="#b" x="-.004" y="19.514"/><use xlink:href="#4"/><use xlink:href="#5" y="2.171"/><use xlink:href="#6" y="4.342"/><use xlink:href="#7" y="8.684"/><use xlink:href="#8" y="13.026"/><use xlink:href="#9" y="15.197"/><use xlink:href="#10" y="17.368"/></svg><svg x="7378"><use xlink:href="#a"/><use xlink:href="#b" x="-.004" y="39.053"/><use xlink:href="#4"/><use xlink:href="#5" y="2.171"/><use xlink:href="#6" y="4.342"/><use xlink:href="#7" y="8.684"/><use xlink:href="#8" y="13.026"/><use xlink:href="#9" y="15.197"/><use xlink:href="#10" y="17.368"/><use xlink:href="#11" y="19.539"/><use xlink:href="#12" y="23.881"/><use xlink:href="#13" y="26.052"/><use xlink:href="#14" y="30.394"/><use xlink:href="#15" y="32.565"/><use xlink:href="#16" y="34.736"/><use xlink:href="#17" y="36.907"/></svg><svg x="7595"><use xlink:href="#a"/><use xlink:href="#b" x="-.004" y="41.224"/><use xlink:href="#4"/><use xlink:href="#5" y="2.171"/><use xlink:href="#6" y="4.342"/><use xlink:href="#7" y="8.684"/><use xlink:href="#8" y="13.026"/><use xlink:href="#9" y="15.197"/><use xlink:href="#10" y="17.368"/><use xlink:href="#11" y="19.539"/><use xlink:href="#12" y="23.881"/><use xlink:href="#13" y="26.052"/><use xlink:href="#14" y="30.394"/><use xlink:href="#15" y="32.565"/><use xlink:href="#16" y="34.736"/><use xlink:href="#17" y="36.907"/><use xlink:href="#18" y="39.078"/></svg><svg x="7812"><use xlink:href="#a"/><use xlink:href="#b" x="-.004" y="43.395"/><use xlink:href="#4"/><use xlink:href="#5" y="2.171"/><use xlink:href="#6" y="4.342"/><use xlink:href="#7" y="8.684"/><use xlink:href="#8" y="13.026"/><use xlink:href="#9" y="15.197"/><use xlink:href="#10" y="17.368"/><use xlink:href="#11" y="19.539"/><use xlink:href="#12" y="23.881"/><use xlink:href="#13" y="26.052"/><use xlink:href="#14" y="30.394"/><use xlink:href="#15" y="32.565"/><use xlink:href="#16" y="34.736"/><use xlink:href="#17" y="36.907"/><use xlink:href="#18" y="39.078"/><use xlink:href="#19" y="41.249"/></svg><svg x="8029"><use xlink:href="#a"/><use xlink:href="#b" x="-.004" y="43.395"/><use xlink:href="#4"/><use xlink:href="#5" y="2.171"/><use xlink:href="#6" y="4.342"/><use xlink:href="#7" y="8.684"/><use xlink:href="#8" y="13.026"/><use xlink:href="#9" y="15.197"/><use xlink:href="#10" y="17.368"/><use xlink:href="#11" y="19.539"/><use xlink:href="#12" y="23.881"/><use xlink:href="#13" y="26.052"/><use xlink:href="#14" y="30.394"/><use xlink:href="#15" y="32.565"/><use xlink:href="#16" y="34.736"/><use xlink:href="#17" y="36.907"/><use xlink:href="#18" y="39.078"/><use xlink:href="#19" y="41.249"/></svg><svg x="8246"><use xlink:href="#a"/><use xlink:href="#b" x="-.004" y="43.395"/><use xlink:href="#4"/><use xlink:href="#5" y="2.171"/><use xlink:href="#6" y="4.342"/><use xlink:href="#7" y="8.684"/><use xlink:href="#8" y="13.026"/><use xlink:href="#9" y="15.197"/><use xlink:href="#10" y="17.368"/><use xlink:href="#11" y="19.539"/><use xlink:href="#12" y="23.881"/><use xlink:href="#13" y="26.052"/><use xlink:href="#14" y="30.394"/><use xlink:href="#15" y="32.565"/><use xlink:href="#16" y="34.736"/><use xlink:href="#17" y="36.907"/><use xlink:href="#18" y="39.078"/><use xlink:href="#19" y="41.249"/></svg><svg x="8463"><use xlink:href="#a"/><use xlink:href="#b" x="-.004" y="43.395"/><use xlink:href="#4"/><use xlink:href="#5" y="2.171"/><use xlink:href="#6" y="4.342"/><use xlink:href="#7" y="8.684"/><use xlink:href="#8" y="13.026"/><use xlink:href="#9" y="15.197"/><use xlink:href="#10" y="17.368"/><use xlink:href="#11" y="19.539"/><use xlink:href="#12" y="23.881"/><use xlink:href="#13" y="26.052"/><use xlink:href="#14" y="30.394"/><use xlink:href="#15" y="32.565"/><use xlink:href="#16" y="34.736"/><use xlink:href="#17" y="36.907"/><use xlink:href="#18" y="39.078"/><use xlink:href="#19" y="41.249"/></svg><svg x="8680"><use xlink:href="#a"/><use xlink:href="#b" x="-.004" y="43.395"/><use xlink:href="#4"/><use xlink:href="#5" y="2.171"/><use xlink:href="#6" y="4.342"/><use xlink:href="#7" y="8.684"/><use xlink:href="#8" y="13.026"/><use xlink:href="#9" y="15.197"/><use xlink:href="#10" y="17.368"/><use xlink:href="#11" y="19.539"/><use xlink:href="#12" y="23.881"/><use xlink:href="#13" y="26.052"/><use xlink:href="#14" y="30.394"/><use xlink:href="#15" y="32.565"/><use xlink:href="#16" y="34.736"/><use xlink:href="#17" y="36.907"/><use xlink:href="#18" y="39.078"/><use xlink:href="#19" y="41.249"/></svg><svg x="8897"><use xlink:href="#a"/><use xlink:href="#b" x="81.996" y="43.395"/><use xlink:href="#4"/><use xlink:href="#5" y="2.171"/><use xlink:href="#6" y="4.342"/><use xlink:href="#7" y="8.684"/><use xlink:href="#8" y="13.026"/><use xlink:href="#9" y="15.197"/><use xlink:href="#10" y="17.368"/><use xlink:href="#11" y="19.539"/><use xlink:href="#12" y="23.881"/><use xlink:href="#13" y="26.052"/><use xlink:href="#14" y="30.394"/><use xlink:href="#15" y="32.565"/><use xlink:href="#16" y="34.736"/><use xlink:href="#17" y="36.907"/><use xlink:href="#18" y="39.078"/><use xlink:href="#19" y="41.249"/><use xlink:href="#1" y="43.42"/></svg><svg x="9114"><use xlink:href="#a"/><use xlink:href="#b" x="81.996" y="43.395"/><use xlink:href="#4"/><use xlink:href="#5" y="2.171"/><use xlink:href="#6" y="4.342"/><use xlink:href="#7" y="8.684"/><use xlink:href="#8" y="13.026"/><use xlink:href="#9" y="15.197"/><use xlink:href="#10" y="17.368"/><use xlink:href="#11" y="19.539"/><use xlink:href="#12" y="23.881"/><use xlink:href="#13" y="26.052"/><use xlink:href="#14" y="30.394"/><use xlink:href="#15" y="32.565"/><use xlink:href="#16" y="34.736"/><use xlink:href="#17" y="36.907"/><use xlink:href="#18" y="39.078"/><use xlink:href="#19" y="41.249"/><use xlink:href="#1" y="43.42"/></svg><svg x="9331"><use xlink:href="#a"/><use xlink:href="#b" x="81.996" y="43.395"/><use xlink:href="#4"/><use xlink:href="#5" y="2.171"/><use xlink:href="#6" y="4.342"/><use xlink:href="#7" y="8.684"/><use xlink:href="#8" y="13.026"/><use xlink:href="#9" y="15.197"/><use xlink:href="#10" y="17.368"/><use xlink:href="#11" y="19.539"/><use xlink:href="#12" y="23.881"/><use xlink:href="#13" y="26.052"/><use xlink:href="#14" y="30.394"/><use xlink:href="#15" y="32.565"/><use xlink:href="#16" y="34.736"/><use xlink:href="#17" y="36.907"/><use xlink:href="#18" y="39.078"/><use xlink:href="#19" y="41.249"/><use xlink:href="#1" y="43.42"/></svg><svg x="9548"><use xlink:href="#a"/><use xlink:href="#b" x="82.996" y="43.395"/><use xlink:href="#4"/><use xlink:href="#5" y="2.171"/><use xlink:href="#6" y="4.342"/><use xlink:href="#7" y="8.684"/><use xlink:href="#8" y="13.026"/><use xlink:href="#9" y="15.197"/><use xlink:href="#10" y="17.368"/><use xlink:href="#11" y="19.539"/><use xlink:href="#12" y="23.881"/><use xlink:href="#13" y="26.052"/><use xlink:href="#14" y="30.394"/><use xlink:href="#15" y="32.565"/><use xlink:href="#16" y="34.736"/><use xlink:href="#17" y="36.907"/><use xlink:href="#18" y="39.078"/><use xlink:href="#19" y="41.249"/><use xlink:href="#2" y="43.42"/></svg><svg x="9765"><use xlink:href="#a"/><use xlink:href="#b" x="82.996" y="43.395"/><use xlink:href="#4"/><use xlink:href="#5" y="2.171"/><use xlink:href="#6" y="4.342"/><use xlink:href="#7" y="8.684"/><use xlink:href="#8" y="13.026"/><use xlink:href="#9" y="15.197"/><use xlink:href="#10" y="17.368"/><use xlink:href="#11" y="19.539"/><use xlink:href="#12" y="23.881"/><use xlink:href="#13" y="26.052"/><use xlink:href="#14" y="30.394"/><use xlink:href="#15" y="32.565"/><use xlink:href="#16" y="34.736"/><use xlink:href="#17" y="36.907"/><use xlink:href="#18" y="39.078"/><use xlink:href="#19" y="41.249"/><use xlink:href="#20" y="43.42"/></svg><svg x="9982"><use xlink:href="#a"/><use xlink:href="#b" x="83.996" y="43.395"/><use xlink:href="#4"/><use xlink:href="#5" y="2.171"/><use xlink:href="#6" y="4.342"/><use xlink:href="#7" y="8.684"/><use xlink:href="#8" y="13.026"/><use xlink:href="#9" y="15.197"/><use xlink:href="#10" y="17.368"/><use xlink:href="#11" y="19.539"/><use xlink:href="#12" y="23.881"/><use xlink:href="#13" y="26.052"/><use xlink:href="#14" y="30.394"/><use xlink:href="#15" y="32.565"/><use xlink:href="#16" y="34.736"/><use xlink:href="#17" y="36.907"/><use xlink:href="#18" y="39.078"/><use xlink:href="#19" y="41.249"/><use xlink:href="#21" y="43.42"/></svg><svg x="10199"><use xlink:href="#a"/><use xlink:href="#b" x="84.996" y="43.395"/><use xlink:href="#4"/><use xlink:href="#5" y="2.171"/><use xlink:href="#6" y="4.342"/><use xlink:href="#7" y="8.684"/><use xlink:href="#8" y="13.026"/><use xlink:href="#9" y="15.197"/><use xlink:href="#10" y="17.368"/><use xlink:href="#11" y="19.539"/><use xlink:href="#12" y="23.881"/><use xlink:href="#13" y="26.052"/><use xlink:href="#14" y="30.394"/><use xlink:href="#15" y="32.565"/><use xlink:href="#16" y="34.736"/><use xlink:href="#17" y="36.907"/><use xlink:href="#18" y="39.078"/><use xlink:href="#19" y="41.249"/><use xlink:href="#22" y="43.42"/></svg><svg x="10416"><use xlink:href="#a"/><use xlink:href="#b" x="85.996" y="43.395"/><use xlink:href="#4"/><use xlink:href="#5" y="2.171"/><use xlink:href="#6" y="4.342"/><use xlink:href="#7" y="8.684"/><use xlink:href="#8" y="13.026"/><use xlink:href="#9" y="15.197"/><use xlink:href="#10" y="17.368"/><use xlink:href="#11" y="19.539"/><use xlink:href="#12" y="23.881"/><use xlink:href="#13" y="26.052"/><use xlink:href="#14" y="30.394"/><use xlink:href="#15" y="32.565"/><use xlink:href="#16" y="34.736"/><use xlink:href="#17" y="36.907"/><use xlink:href="#18" y="39.078"/><use xlink:href="#19" y="41.249"/><use xlink:href="#23" y="43.42"/></svg><svg x="10633"><use xlink:href="#a"/><use xlink:href="#b" x="86.996" y="43.395"/><use xlink:href="#4"/><use xlink:href="#5" y="2.171"/><use xlink:href="#6" y="4.342"/><use xlink:href="#7" y="8.684"/><use xlink:href="#8" y="13.026"/><use xlink:href="#9" y="15.197"/><use xlink:href="#10" y="17.368"/><use xlink:href="#11" y="19.539"/><use xlink:href="#12" y="23.881"/><use xlink:href="#13" y="26.052"/><use xlink:href="#14" y="30.394"/><use xlink:href="#15" y="32.565"/><use xlink:href="#16" y="34.736"/><use xlink:href="#17" y="36.907"/><use xlink:href="#18" y="39.078"/><use xlink:href="#19" y="41.249"/><use xlink:href="#23" y="43.42"/></svg><svg x="10850"><use xlink:href="#a"/><use xlink:href="#b" x="87.996" y="43.395"/><use xlink:href="#4"/><use xlink:href="#5" y="2.171"/><use xlink:href="#6" y="4.342"/><use xlink:href="#7" y="8.684"/><use xlink:href="#8" y="13.026"/><use xlink:href="#9" y="15.197"/><use xlink:href="#10" y="17.368"/><use xlink:href="#11" y="19.539"/><use xlink:href="#12" y="23.881"/><use xlink:href="#13" y="26.052"/><use xlink:href="#14" y="30.394"/><use xlink:href="#15" y="32.565"/><use xlink:href="#16" y="34.736"/><use xlink:href="#17" y="36.907"/><use xlink:href="#18" y="39.078"/><use xlink:href="#19" y="41.249"/><text y="45.09" class="c">*</text><text x="1.002" y="45.09" class="d">[dev-verify-policy]</text><text x="20.04" y="45.09" class="e">[~/dev/sandbox/kerits/kv4-fourth/examples/verify-standalone]</text><text x="80.16" y="45.09" class="f">$</text><text x="82.164" y="45.09" class="g">make</text><text x="87.174" y="45.09" class="g">s</text></svg><svg x="11067"><use xlink:href="#a"/><use xlink:href="#b" x="87.996" y="43.395"/><use xlink:href="#4"/><use xlink:href="#5" y="2.171"/><use xlink:href="#6" y="4.342"/><use xlink:href="#7" y="8.684"/><use xlink:href="#8" y="13.026"/><use xlink:href="#9" y="15.197"/><use xlink:href="#10" y="17.368"/><use xlink:href="#11" y="19.539"/><use xlink:href="#12" y="23.881"/><use xlink:href="#13" y="26.052"/><use xlink:href="#14" y="30.394"/><use xlink:href="#15" y="32.565"/><use xlink:href="#16" y="34.736"/><use xlink:href="#17" y="36.907"/><use xlink:href="#18" y="39.078"/><use xlink:href="#19" y="41.249"/><text y="45.09" class="c">*</text><text x="1.002" y="45.09" class="d">[dev-verify-policy]</text><text x="20.04" y="45.09" class="e">[~/dev/sandbox/kerits/kv4-fourth/examples/verify-standalone]</text><text x="80.16" y="45.09" class="f">$</text><text x="82.164" y="45.09" class="g">make</text><text x="87.174" y="45.09" class="g">s</text><text x="88.176" y="45.09" class="h">tatus</text></svg><svg x="11284"><use xlink:href="#a"/><use xlink:href="#b" x="86.996" y="43.395"/><use xlink:href="#4"/><use xlink:href="#5" y="2.171"/><use xlink:href="#6" y="4.342"/><use xlink:href="#7" y="8.684"/><use xlink:href="#8" y="13.026"/><use xlink:href="#9" y="15.197"/><use xlink:href="#10" y="17.368"/><use xlink:href="#11" y="19.539"/><use xlink:href="#12" y="23.881"/><use xlink:href="#13" y="26.052"/><use xlink:href="#14" y="30.394"/><use xlink:href="#15" y="32.565"/><use xlink:href="#16" y="34.736"/><use xlink:href="#17" y="36.907"/><use xlink:href="#18" y="39.078"/><use xlink:href="#19" y="41.249"/><use xlink:href="#24" y="43.42"/></svg><svg x="11501"><use xlink:href="#a"/><use xlink:href="#b" x="86.996" y="43.395"/><use xlink:href="#4"/><use xlink:href="#5" y="2.171"/><use xlink:href="#6" y="4.342"/><use xlink:href="#7" y="8.684"/><use xlink:href="#8" y="13.026"/><use xlink:href="#9" y="15.197"/><use xlink:href="#10" y="17.368"/><use xlink:href="#11" y="19.539"/><use xlink:href="#12" y="23.881"/><use xlink:href="#13" y="26.052"/><use xlink:href="#14" y="30.394"/><use xlink:href="#15" y="32.565"/><use xlink:href="#16" y="34.736"/><use xlink:href="#17" y="36.907"/><use xlink:href="#18" y="39.078"/><use xlink:href="#19" y="41.249"/><use xlink:href="#23" y="43.42"/></svg><svg x="11718"><use xlink:href="#a"/><use xlink:href="#b" x="85.996" y="43.395"/><use xlink:href="#4"/><use xlink:href="#5" y="2.171"/><use xlink:href="#6" y="4.342"/><use xlink:href="#7" y="8.684"/><use xlink:href="#8" y="13.026"/><use xlink:href="#9" y="15.197"/><use xlink:href="#10" y="17.368"/><use xlink:href="#11" y="19.539"/><use xlink:href="#12" y="23.881"/><use xlink:href="#13" y="26.052"/><use xlink:href="#14" y="30.394"/><use xlink:href="#15" y="32.565"/><use xlink:href="#16" y="34.736"/><use xlink:href="#17" y="36.907"/><use xlink:href="#18" y="39.078"/><use xlink:href="#19" y="41.249"/><use xlink:href="#24" y="43.42"/></svg><svg x="11935"><use xlink:href="#a"/><use xlink:href="#b" x="85.996" y="43.395"/><use xlink:href="#4"/><use xlink:href="#5" y="2.171"/><use xlink:href="#6" y="4.342"/><use xlink:href="#7" y="8.684"/><use xlink:href="#8" y="13.026"/><use xlink:href="#9" y="15.197"/><use xlink:href="#10" y="17.368"/><use xlink:href="#11" y="19.539"/><use xlink:href="#12" y="23.881"/><use xlink:href="#13" y="26.052"/><use xlink:href="#14" y="30.394"/><use xlink:href="#15" y="32.565"/><use xlink:href="#16" y="34.736"/><use xlink:href="#17" y="36.907"/><use xlink:href="#18" y="39.078"/><use xlink:href="#19" y="41.249"/><use xlink:href="#23" y="43.42"/></svg><svg x="12152"><use xlink:href="#a"/><use xlink:href="#b" x="84.996" y="43.395"/><use xlink:href="#4"/><use xlink:href="#5" y="2.171"/><use xlink:href="#6" y="4.342"/><use xlink:href="#7" y="8.684"/><use xlink:href="#8" y="13.026"/><use xlink:href="#9" y="15.197"/><use xlink:href="#10" y="17.368"/><use xlink:href="#11" y="19.539"/><use xlink:href="#12" y="23.881"/><use xlink:href="#13" y="26.052"/><use xlink:href="#14" y="30.394"/><use xlink:href="#15" y="32.565"/><use xlink:href="#16" y="34.736"/><use xlink:href="#17" y="36.907"/><use xlink:href="#18" y="39.078"/><use xlink:href="#19" y="41.249"/><text y="45.09" class="c">*</text><text x="1.002" y="45.09" class="d">[dev-verify-policy]</text><text x="20.04" y="45.09" class="e">[~/dev/sandbox/kerits/kv4-fourth/examples/verify-standalone]</text><text x="80.16" y="45.09" class="f">$</text><text x="82.164" y="45.09" class="g">mak</text></svg><svg x="12369"><use xlink:href="#a"/><use xlink:href="#b" x="84.996" y="43.395"/><use xlink:href="#4"/><use xlink:href="#5" y="2.171"/><use xlink:href="#6" y="4.342"/><use xlink:href="#7" y="8.684"/><use xlink:href="#8" y="13.026"/><use xlink:href="#9" y="15.197"/><use xlink:href="#10" y="17.368"/><use xlink:href="#11" y="19.539"/><use xlink:href="#12" y="23.881"/><use xlink:href="#13" y="26.052"/><use xlink:href="#14" y="30.394"/><use xlink:href="#15" y="32.565"/><use xlink:href="#16" y="34.736"/><use xlink:href="#17" y="36.907"/><use xlink:href="#18" y="39.078"/><use xlink:href="#19" y="41.249"/><use xlink:href="#22" y="43.42"/></svg><svg x="12586"><use xlink:href="#a"/><use xlink:href="#b" x="83.996" y="43.395"/><use xlink:href="#4"/><use xlink:href="#5" y="2.171"/><use xlink:href="#6" y="4.342"/><use xlink:href="#7" y="8.684"/><use xlink:href="#8" y="13.026"/><use xlink:href="#9" y="15.197"/><use xlink:href="#10" y="17.368"/><use xlink:href="#11" y="19.539"/><use xlink:href="#12" y="23.881"/><use xlink:href="#13" y="26.052"/><use xlink:href="#14" y="30.394"/><use xlink:href="#15" y="32.565"/><use xlink:href="#16" y="34.736"/><use xlink:href="#17" y="36.907"/><use xlink:href="#18" y="39.078"/><use xlink:href="#19" y="41.249"/><text y="45.09" class="c">*</text><text x="1.002" y="45.09" class="d">[dev-verify-policy]</text><text x="20.04" y="45.09" class="e">[~/dev/sandbox/kerits/kv4-fourth/examples/verify-standalone]</text><text x="80.16" y="45.09" class="f">$</text><text x="82.164" y="45.09" class="g">ma</text></svg><svg x="12803"><use xlink:href="#a"/><use xlink:href="#b" x="83.996" y="43.395"/><use xlink:href="#4"/><use xlink:href="#5" y="2.171"/><use xlink:href="#6" y="4.342"/><use xlink:href="#7" y="8.684"/><use xlink:href="#8" y="13.026"/><use xlink:href="#9" y="15.197"/><use xlink:href="#10" y="17.368"/><use xlink:href="#11" y="19.539"/><use xlink:href="#12" y="23.881"/><use xlink:href="#13" y="26.052"/><use xlink:href="#14" y="30.394"/><use xlink:href="#15" y="32.565"/><use xlink:href="#16" y="34.736"/><use xlink:href="#17" y="36.907"/><use xlink:href="#18" y="39.078"/><use xlink:href="#19" y="41.249"/><use xlink:href="#21" y="43.42"/></svg><svg x="13020"><use xlink:href="#a"/><use xlink:href="#b" x="82.996" y="43.395"/><use xlink:href="#4"/><use xlink:href="#5" y="2.171"/><use xlink:href="#6" y="4.342"/><use xlink:href="#7" y="8.684"/><use xlink:href="#8" y="13.026"/><use xlink:href="#9" y="15.197"/><use xlink:href="#10" y="17.368"/><use xlink:href="#11" y="19.539"/><use xlink:href="#12" y="23.881"/><use xlink:href="#13" y="26.052"/><use xlink:href="#14" y="30.394"/><use xlink:href="#15" y="32.565"/><use xlink:href="#16" y="34.736"/><use xlink:href="#17" y="36.907"/><use xlink:href="#18" y="39.078"/><use xlink:href="#19" y="41.249"/><use xlink:href="#2" y="43.42"/></svg><svg x="13237"><use xlink:href="#a"/><use xlink:href="#b" x="82.996" y="43.395"/><use xlink:href="#4"/><use xlink:href="#5" y="2.171"/><use xlink:href="#6" y="4.342"/><use xlink:href="#7" y="8.684"/><use xlink:href="#8" y="13.026"/><use xlink:href="#9" y="15.197"/><use xlink:href="#10" y="17.368"/><use xlink:href="#11" y="19.539"/><use xlink:href="#12" y="23.881"/><use xlink:href="#13" y="26.052"/><use xlink:href="#14" y="30.394"/><use xlink:href="#15" y="32.565"/><use xlink:href="#16" y="34.736"/><use xlink:href="#17" y="36.907"/><use xlink:href="#18" y="39.078"/><use xlink:href="#19" y="41.249"/><use xlink:href="#20" y="43.42"/></svg><svg x="13454"><use xlink:href="#a"/><use xlink:href="#b" x="81.996" y="43.395"/><use xlink:href="#4"/><use xlink:href="#5" y="2.171"/><use xlink:href="#6" y="4.342"/><use xlink:href="#7" y="8.684"/><use xlink:href="#8" y="13.026"/><use xlink:href="#9" y="15.197"/><use xlink:href="#10" y="17.368"/><use xlink:href="#11" y="19.539"/><use xlink:href="#12" y="23.881"/><use xlink:href="#13" y="26.052"/><use xlink:href="#14" y="30.394"/><use xlink:href="#15" y="32.565"/><use xlink:href="#16" y="34.736"/><use xlink:href="#17" y="36.907"/><use xlink:href="#18" y="39.078"/><use xlink:href="#19" y="41.249"/><use xlink:href="#1" y="43.42"/></svg><svg x="13671"><use xlink:href="#a"/><use xlink:href="#b" x="-.004" y="43.395"/><use xlink:href="#5"/><use xlink:href="#6" y="2.171"/><use xlink:href="#7" y="6.513"/><use xlink:href="#8" y="10.855"/><use xlink:href="#9" y="13.026"/><use xlink:href="#10" y="15.197"/><use xlink:href="#11" y="17.368"/><use xlink:href="#12" y="21.71"/><use xlink:href="#13" y="23.881"/><use xlink:href="#14" y="28.223"/><use xlink:href="#15" y="30.394"/><use xlink:href="#16" y="32.565"/><use xlink:href="#17" y="34.736"/><use xlink:href="#18" y="36.907"/><use xlink:href="#19" y="39.078"/><use xlink:href="#1" y="41.249"/></svg></svg></g></g></svg></svg>